<svg xmlns="http://www.w3.org/2000/svg" width="1000" height="650" viewBox="0 0 1000 650" role="img" aria-labelledby="title desc">
<title id="title">Family-held-out tree versus optimized circular performance across TLI, GBI and WALS</title>
<desc id="desc">Grouped bars show mean Spearman correlations. TLI tree 0.182 circle 0.109; GBI tree 0.122 circle 0.073; WALS tree 0.603 circle 0.410. Magnitudes are not directly comparable across datasets.</desc>
<rect width="1000" height="650" fill="white"/>
<text x="500" y="45" text-anchor="middle" font-family="sans-serif" font-size="26" font-weight="700">Family-held-out predictive ranking replicates across representations</text>
<text x="500" y="76" text-anchor="middle" font-family="sans-serif" font-size="15">Mean Spearman correlation; absolute magnitudes are not directly comparable across datasets</text>
<line x1="110" y1="540" x2="930" y2="540" stroke="#222" stroke-width="2"/>
<line x1="110" y1="120" x2="110" y2="540" stroke="#222" stroke-width="2"/>
<line x1="105" y1="540" x2="930" y2="540" stroke="#ddd"/><text x="95" y="545" text-anchor="end" font-family="sans-serif" font-size="14">0.0</text><line x1="105" y1="475" x2="930" y2="475" stroke="#ddd"/><text x="95" y="480" text-anchor="end" font-family="sans-serif" font-size="14">0.1</text><line x1="105" y1="410" x2="930" y2="410" stroke="#ddd"/><text x="95" y="415" text-anchor="end" font-family="sans-serif" font-size="14">0.2</text><line x1="105" y1="345" x2="930" y2="345" stroke="#ddd"/><text x="95" y="350" text-anchor="end" font-family="sans-serif" font-size="14">0.3</text><line x1="105" y1="280" x2="930" y2="280" stroke="#ddd"/><text x="95" y="285" text-anchor="end" font-family="sans-serif" font-size="14">0.4</text><line x1="105" y1="215" x2="930" y2="215" stroke="#ddd"/><text x="95" y="220" text-anchor="end" font-family="sans-serif" font-size="14">0.5</text><line x1="105" y1="150" x2="930" y2="150" stroke="#ddd"/><text x="95" y="155" text-anchor="end" font-family="sans-serif" font-size="14">0.6</text>
<rect x="190" y="421.7" width="90" height="118.3" fill="#4b5563"/><rect x="290" y="469.15" width="90" height="70.85" fill="#b0b7c3"/>
<rect x="455" y="460.7" width="90" height="79.3" fill="#4b5563"/><rect x="555" y="492.55" width="90" height="47.449999999999996" fill="#b0b7c3"/>
<rect x="720" y="148.05" width="90" height="391.95" fill="#4b5563"/><rect x="820" y="273.5" width="90" height="266.5" fill="#b0b7c3"/>
<g font-family="sans-serif" font-size="16" text-anchor="middle"><text x="285" y="575">TLI</text><text x="550" y="575">GBI</text><text x="815" y="575">WALS</text></g>
<g font-family="sans-serif" font-size="14" text-anchor="middle"><text x="235" y="406.7">0.182</text><text x="335" y="454.15">0.109</text><text x="500" y="445.7">0.122</text><text x="600" y="477.55">0.073</text><text x="765" y="133.05">0.603</text><text x="865" y="258.5">0.410</text></g>
<rect x="350" y="605" width="18" height="18" fill="#4b5563"/><text x="378" y="620" font-family="sans-serif" font-size="14">Tree benchmark</text>
<rect x="520" y="605" width="18" height="18" fill="#b0b7c3"/><text x="548" y="620" font-family="sans-serif" font-size="14">Optimized circle</text>
</svg>