<svg xmlns="http://www.w3.org/2000/svg" width="1200" height="330" viewBox="0 0 1200 330" role="img">
<title>ARIS4C research portfolio</title>
<rect width="1200" height="330" rx="24" fill="#0b1220"/>
<style>text{font-family:Inter,ui-sans-serif,system-ui,-apple-system,BlinkMacSystemFont,"Segoe UI",sans-serif}.title{font-size:28px;font-weight:700;fill:#f8fafc}.sub{font-size:15px;fill:#9fb0c8}.label{font-size:14px;fill:#d8e2ef}.small{font-size:12px;fill:#9fb0c8}.metric{font-size:34px;font-weight:750;fill:#f8fafc}</style>
<path d="M0 260 C240 210 360 335 610 270 S970 170 1200 235 V330 H0 Z" fill="#10233b"/>
<circle cx="1050" cy="65" r="110" fill="#132a47"/>
<circle cx="1110" cy="35" r="55" fill="#17385d"/>
<text x="62" y="74" class="small">ARIS FOR COCHRANE · RESEARCH PORTFOLIO</text>
<text x="62" y="126" class="title" style="font-size:42px">Research as a living system.</text>
<text x="62" y="158" class="sub">Papers, evidence, bilingual outputs, review gates, and cross-agent continuity in one canonical repository.</text>
<rect x="62" y="205" width="185" height="82" rx="16" fill="#111b2e" stroke="#20304b"/>
<text x="80" y="244" class="metric">16</text>
<text x="80" y="271" class="small">tracked papers</text>
<rect x="285" y="205" width="185" height="82" rx="16" fill="#111b2e" stroke="#20304b"/>
<text x="303" y="244" class="metric">71%</text>
<text x="303" y="271" class="small">mean maturity</text>
<rect x="508" y="205" width="185" height="82" rx="16" fill="#111b2e" stroke="#20304b"/>
<text x="526" y="244" class="metric">10</text>
<text x="526" y="271" class="small">active</text>
<rect x="731" y="205" width="185" height="82" rx="16" fill="#111b2e" stroke="#20304b"/>
<text x="749" y="244" class="metric">4</text>
<text x="749" y="271" class="small">at gate</text>
<rect x="954" y="205" width="185" height="82" rx="16" fill="#111b2e" stroke="#20304b"/>
<text x="972" y="244" class="metric">16/16</text>
<text x="972" y="271" class="small">handoff ready</text>
<text x="62" y="312" class="small">2 project(s) currently expose bilingual PDF delivery · Continuity 16/16</text>
</svg>