<svg xmlns="http://www.w3.org/2000/svg" width="1200" height="690" viewBox="0 0 1200 690" role="img">
<title>ARIS4C maturity by paper</title>
<rect width="1200" height="690" rx="24" fill="#0b1220"/>
<style>
text{font-family:Inter,ui-sans-serif,system-ui,-apple-system,BlinkMacSystemFont,"Segoe UI",sans-serif}
.title{font-size:28px;font-weight:700;fill:#f8fafc}.sub{font-size:15px;fill:#9fb0c8}.label{font-size:14px;fill:#d8e2ef}.small{font-size:12px;fill:#9fb0c8}.metric{font-size:34px;font-weight:750;fill:#f8fafc}
</style>
<text x="50" y="55" class="title">Portfolio maturity by paper</text>
<text x="50" y="82" class="sub">Management estimate, not a scientific result. 100% means the repository-level final output contract is satisfied.</text>
<text x="50" y="125" class="label">001 · Bee GCA × Uncertainty</text>
<text x="550" y="125" text-anchor="end" class="small">100%</text>
<rect x="50" y="138" width="500" height="14" rx="7" fill="#20304b"/>
<rect x="50" y="138" width="500" height="14" rx="7" fill="#8aa0b8"/>
<text x="50" y="191" class="label">002 · Testing linguistic periodicity</text>
<text x="550" y="191" text-anchor="end" class="small">100%</text>
<rect x="50" y="204" width="500" height="14" rx="7" fill="#20304b"/>
<rect x="50" y="204" width="500" height="14" rx="7" fill="#8aa0b8"/>
<text x="50" y="257" class="label">003 · Colonial Legacies × Disciplinary …</text>
<text x="550" y="257" text-anchor="end" class="small">70%</text>
<rect x="50" y="270" width="500" height="14" rx="7" fill="#20304b"/>
<rect x="50" y="270" width="350" height="14" rx="7" fill="#48c78e"/>
<text x="50" y="323" class="label">004 · Mental Health × Knowledge-Network…</text>
<text x="550" y="323" text-anchor="end" class="small">74%</text>
<rect x="50" y="336" width="500" height="14" rx="7" fill="#20304b"/>
<rect x="50" y="336" width="370" height="14" rx="7" fill="#48c78e"/>
<text x="50" y="389" class="label">005 · Global Burden of Bad Science</text>
<text x="550" y="389" text-anchor="end" class="small">68%</text>
<rect x="50" y="402" width="500" height="14" rx="7" fill="#20304b"/>
<rect x="50" y="402" width="340" height="14" rx="7" fill="#f2c14e"/>
<text x="50" y="455" class="label">006 · Chinese Surnames × Alphabetical E…</text>
<text x="550" y="455" text-anchor="end" class="small">62%</text>
<rect x="50" y="468" width="500" height="14" rx="7" fill="#20304b"/>
<rect x="50" y="468" width="310" height="14" rx="7" fill="#48c78e"/>
<text x="50" y="521" class="label">007 · Cross-Species Age Equivalence</text>
<text x="550" y="521" text-anchor="end" class="small">76%</text>
<rect x="50" y="534" width="500" height="14" rx="7" fill="#20304b"/>
<rect x="50" y="534" width="380" height="14" rx="7" fill="#48c78e"/>
<text x="50" y="587" class="label">008 · Human Intelligence Bootstrap</text>
<text x="550" y="587" text-anchor="end" class="small">60%</text>
<rect x="50" y="600" width="500" height="14" rx="7" fill="#20304b"/>
<rect x="50" y="600" width="300" height="14" rx="7" fill="#48c78e"/>
<text x="620" y="125" class="label">009 · Phenomenology-Preserving Computat…</text>
<text x="1120" y="125" text-anchor="end" class="small">56%</text>
<rect x="620" y="138" width="500" height="14" rx="7" fill="#20304b"/>
<rect x="620" y="138" width="280" height="14" rx="7" fill="#48c78e"/>
<text x="620" y="191" class="label">010 · Universal Concept Identification</text>
<text x="1120" y="191" text-anchor="end" class="small">72%</text>
<rect x="620" y="204" width="500" height="14" rx="7" fill="#20304b"/>
<rect x="620" y="204" width="360" height="14" rx="7" fill="#48c78e"/>
<text x="620" y="257" class="label">011 · Research Forensics</text>
<text x="1120" y="257" text-anchor="end" class="small">72%</text>
<rect x="620" y="270" width="500" height="14" rx="7" fill="#20304b"/>
<rect x="620" y="270" width="360" height="14" rx="7" fill="#48c78e"/>
<text x="620" y="323" class="label">012 · Indexed Oppositional Causal Inver…</text>
<text x="1120" y="323" text-anchor="end" class="small">63%</text>
<rect x="620" y="336" width="500" height="14" rx="7" fill="#20304b"/>
<rect x="620" y="336" width="315" height="14" rx="7" fill="#f2c14e"/>
<text x="620" y="389" class="label">013 · Birth–Death Temporal Coupling</text>
<text x="1120" y="389" text-anchor="end" class="small">50%</text>
<rect x="620" y="402" width="500" height="14" rx="7" fill="#20304b"/>
<rect x="620" y="402" width="250" height="14" rx="7" fill="#f2c14e"/>
<text x="620" y="455" class="label">014 · Public Integrity Forensics</text>
<text x="1120" y="455" text-anchor="end" class="small">69%</text>
<rect x="620" y="468" width="500" height="14" rx="7" fill="#20304b"/>
<rect x="620" y="468" width="345" height="14" rx="7" fill="#48c78e"/>
<text x="620" y="521" class="label">015 · Sleeping Beauty Miner</text>
<text x="1120" y="521" text-anchor="end" class="small">83%</text>
<rect x="620" y="534" width="500" height="14" rx="7" fill="#20304b"/>
<rect x="620" y="534" width="415" height="14" rx="7" fill="#48c78e"/>
<text x="620" y="587" class="label">016 · Global Grammar of Swearing</text>
<text x="1120" y="587" text-anchor="end" class="small">55%</text>
<rect x="620" y="600" width="500" height="14" rx="7" fill="#20304b"/>
<rect x="620" y="600" width="275" height="14" rx="7" fill="#f2c14e"/>
<circle cx="50" cy="655" r="6" fill="#48c78e"/><text x="64" y="660" class="small">Active</text>
<circle cx="150" cy="655" r="6" fill="#f2c14e"/><text x="164" y="660" class="small">At gate</text>
<circle cx="265" cy="655" r="6" fill="#8aa0b8"/><text x="279" y="660" class="small">Quiet</text>
<circle cx="360" cy="655" r="6" fill="#ef6a6a"/><text x="374" y="660" class="small">Blocked</text>
</svg>
